# xmcd
# Copyright (C) 1995-1998 Ti Kan
#
# Track frame offsets:
#       150
#       19149
#       36025
#       53000
#       73050
#       89825
#       112271
#       127818
#       145339
#       167903
#       187203
#       207526
#       222892
#
# Disc length: 3180 seconds
#
# Revision: 2
# Processed by: cddbd v1.5.1PL2 Copyright (c) Steve Scherf et al.
# Submitted via: CD-Transfer v1.0
#
DISCID=ce0c6a0d
DTITLE=Buendnerflaisch - Gsesch Guat Us
DYEAR=2006
DGENRE=
TTITLE0=Rockundrolla
TTITLE1=Fruend
TTITLE2=Dr Boarder
TTITLE3=A Frau
TTITLE4=Natur
TTITLE5=Anna
TTITLE6=E-M@il
TTITLE7=Kumma Grad
TTITLE8=So Aifach Kanns Nit Si
TTITLE9=Eh Alles Do
TTITLE10=Mag Nuemma
TTITLE11=Vum A Kind
TTITLE12=E-M@il (Radioversion)
EXTD=
EXTT0=
EXTT1=
EXTT2=
EXTT3=
EXTT4=
EXTT5=
EXTT6=
EXTT7=
EXTT8=
EXTT9=
EXTT10=
EXTT11=
EXTT12=
PLAYORDER=
